<?xml version="1.0" standalone="no"?>
<!DOCTYPE svg PUBLIC "-//W3C//DTD SVG 20010904//EN"
 "http://www.w3.org/TR/2001/REC-SVG-20010904/DTD/svg10.dtd">
<svg version="1.0" xmlns="http://www.w3.org/2000/svg"
 width="512.000000pt" height="512.000000pt" viewBox="0 0 512.000000 512.000000"
 preserveAspectRatio="xMidYMid meet">
<metadata>
Created by potrace 1.14, written by Peter Selinger 2001-2017
</metadata>
<g transform="translate(0.000000,512.000000) scale(0.100000,-0.100000)"
fill="#000000" stroke="none">
<path d="M1097 5038 c-126 -16 -242 -103 -300 -226 -32 -67 -32 -68 -35 -254
-3 -134 -7 -188 -15 -188 -7 0 -41 -5 -77 -10 -36 -5 -85 -12 -110 -15 -190
-24 -258 -51 -340 -134 -96 -99 -121 -205 -94 -391 11 -81 21 -151 29 -213 2
-15 7 -44 10 -65 2 -20 7 -57 10 -82 3 -25 15 -108 26 -185 29 -208 28 -201
44 -330 3 -27 8 -61 10 -75 2 -14 7 -49 10 -79 4 -30 8 -61 10 -70 5 -27 14
-93 20 -141 3 -25 8 -56 10 -70 2 -14 7 -47 10 -75 3 -27 8 -65 11 -82 2 -18
6 -48 8 -65 3 -18 10 -70 16 -115 6 -46 13 -95 15 -111 1 -16 8 -64 14 -108 7
-43 14 -94 16 -111 3 -18 7 -48 10 -65 2 -18 14 -103 25 -188 11 -85 22 -168
25 -185 2 -16 7 -52 10 -80 4 -27 9 -61 11 -75 2 -14 13 -95 24 -180 11 -85
22 -166 24 -180 3 -14 7 -47 11 -75 9 -75 15 -117 20 -150 5 -30 21 -147 32
-235 26 -208 183 -350 386 -350 39 0 83 1 97 4 14 2 97 13 185 25 88 12 167
24 175 26 8 2 42 7 75 11 33 3 69 8 80 10 11 2 44 7 74 10 30 3 64 8 75 10 12
2 73 11 136 20 63 8 126 17 140 19 14 3 61 9 105 15 44 6 91 13 105 15 14 2
78 11 142 20 65 9 125 18 135 19 10 2 43 7 73 11 30 3 67 8 81 11 15 2 47 6
70 9 24 3 55 8 69 10 28 4 152 21 220 30 85 12 115 16 130 20 8 3 46 7 85 11
38 3 72 7 75 9 3 2 30 6 60 10 108 13 165 34 232 87 71 56 138 185 138 270 0
19 12 35 43 59 57 45 83 75 119 136 l30 53 171 -157 c95 -85 177 -161 182
-167 6 -6 55 -51 110 -101 54 -49 107 -98 117 -107 58 -58 179 -80 266 -50 69
23 137 95 158 168 30 102 4 194 -79 285 -23 25 -79 86 -123 135 -97 106 -102
111 -224 244 -52 57 -99 108 -105 114 -5 6 -49 54 -96 106 -47 52 -102 113
-122 134 l-35 39 23 62 c121 320 45 693 -192 945 l-33 35 0 368 c0 202 4 367
8 367 5 0 28 -7 53 -15 209 -71 456 -43 643 74 178 111 295 272 345 474 25
103 26 251 1 355 -63 263 -259 473 -515 555 -165 53 -359 46 -517 -18 l-58
-24 -30 44 c-57 83 -157 146 -257 161 -63 9 -2441 11 -2516 2z m2558 -178 c29
-14 63 -43 82 -67 l32 -43 -63 -62 c-76 -76 -118 -137 -161 -231 -80 -177 -90
-375 -27 -557 18 -50 18 -62 7 -119 -8 -34 -16 -79 -19 -99 -2 -20 -7 -44 -10
-52 -3 -8 -8 -32 -11 -54 -3 -21 -8 -42 -10 -47 -3 -4 2 -26 11 -48 20 -52 49
-62 129 -45 33 7 85 15 115 19 l56 6 -1 -320 c0 -177 -3 -321 -6 -321 -4 0
-33 13 -66 29 -335 166 -749 105 -1018 -150 -121 -115 -202 -241 -250 -391
-33 -105 -40 -154 -39 -293 1 -121 14 -193 55 -303 84 -229 269 -420 500 -516
47 -19 96 -37 110 -40 109 -22 150 -28 212 -30 66 -2 155 6 217 19 68 13 85
18 142 41 l62 24 42 -41 c37 -36 41 -44 34 -72 -14 -58 -28 -84 -65 -120 -73
-71 8 -67 -1363 -67 -946 0 -1244 3 -1276 12 -48 15 -108 72 -133 125 -16 35
-17 153 -20 1648 -1 886 -4 1693 -6 1795 -4 202 3 247 47 305 30 39 85 75 130
85 17 4 589 6 1271 6 l1240 -1 50 -25z m558 -3515 c51 -55 115 -125 143 -155
27 -30 71 -77 96 -105 26 -27 56 -61 67 -74 11 -13 58 -65 104 -115 46 -50
100 -109 120 -131 21 -22 38 -49 39 -60 7 -80 -22 -123 -89 -132 -52 -7 -71 4
-183 107 -51 47 -98 90 -104 95 -132 120 -235 214 -252 230 -11 11 -63 59
-115 106 -52 47 -116 106 -143 131 l-49 44 109 110 109 111 28 -31 c16 -17 70
-76 120 -131z"/>
<path d="M2351 4647 c-21 -23 -22 -32 -23 -222 l-1 -199 27 -22 26 -23 416 0
417 -1 26 29 c26 28 26 29 27 212 1 198 -6 231 -48 243 -13 3 -208 6 -434 6
l-411 0 -22 -23z"/>
<path d="M1522 4635 c-211 -98 -229 -383 -31 -504 42 -27 66 -34 125 -38 68
-5 79 -4 138 26 164 80 216 260 120 412 -72 115 -229 161 -352 104z m203 -159
c47 -44 55 -96 25 -152 -46 -89 -154 -98 -214 -19 -41 53 -33 143 16 182 48
38 126 33 173 -11z"/>
<path d="M2371 4018 c-47 -17 -56 -95 -15 -127 26 -20 37 -21 440 -21 l413 0
25 23 c36 31 40 71 11 105 l-23 27 -416 0 c-229 0 -425 -3 -435 -7z"/>
<path d="M1638 4006 c-1 -2 -41 -6 -88 -9 -277 -20 -427 -157 -432 -394 -2
-99 18 -155 77 -216 46 -48 99 -74 167 -84 80 -12 536 -7 584 6 91 25 171 102
198 193 19 60 12 182 -13 249 -52 139 -198 231 -388 245 -43 3 -83 7 -90 9 -6
2 -13 2 -15 1z"/>
<path d="M2356 3719 c-32 -25 -35 -75 -7 -110 l19 -24 417 0 c276 -1 425 3
439 10 52 26 52 116 -1 136 -13 5 -205 9 -432 9 -398 0 -409 -1 -435 -21z"/>
<path d="M2467 3450 c-120 -6 -137 -15 -137 -73 0 -40 15 -63 47 -74 33 -10
796 -10 836 1 57 14 69 108 18 136 -22 11 -574 19 -764 10z"/>
<path d="M1303 3140 c-116 -4 -146 -8 -163 -22 -23 -20 -22 -4 -22 -296 -1
-216 0 -224 21 -245 21 -21 30 -22 270 -25 l249 -3 28 24 28 25 1 237 c0 254
-5 290 -47 300 -34 8 -203 11 -365 5z"/>
<path d="M1934 3102 c-55 -8 -66 -15 -78 -44 -16 -37 -5 -83 23 -98 17 -9 100
-12 288 -11 92 1 104 3 123 23 26 28 26 82 0 108 -11 11 -26 20 -32 21 -50 2
-308 3 -324 1z"/>
<path d="M1876 2719 c-34 -27 -37 -86 -5 -115 19 -17 39 -19 213 -20 151 -1
198 1 224 13 36 17 50 52 36 92 -16 45 -43 51 -250 51 -179 0 -193 -1 -218
-21z"/>
<path d="M1155 2432 c-14 -7 -28 -25 -31 -39 -6 -21 -9 -377 -5 -469 1 -12 10
-32 20 -45 19 -24 19 -24 263 -25 260 -1 285 3 304 48 7 17 11 416 5 495 -1 7
-12 20 -26 29 -22 14 -60 17 -266 18 -177 1 -246 -2 -264 -12z m405 -282 l0
-140 -144 0 -144 0 0 140 1 140 143 0 144 0 0 -140z"/>
<path d="M1890 2404 c-55 -24 -54 -122 1 -139 13 -4 85 -8 161 -8 131 0 140 2
164 23 30 29 32 78 4 108 -17 17 -33 22 -78 23 -31 0 -95 1 -141 2 -46 1 -96
-3 -111 -9z"/>
<path d="M1888 2038 c-44 -15 -53 -86 -17 -123 18 -18 34 -20 171 -21 146 -1
153 0 175 22 30 30 31 84 2 110 -18 17 -39 19 -163 20 -77 1 -153 -2 -168 -8z"/>
<path d="M1178 1748 c-37 -7 -58 -31 -59 -67 -1 -14 -1 -124 -1 -243 -1 -240
4 -260 59 -270 15 -3 133 -5 260 -4 225 1 233 2 254 23 22 21 22 29 24 260 2
255 -3 285 -47 299 -29 9 -446 11 -490 2z"/>
<path d="M1910 1712 c-14 -2 -33 -11 -42 -19 -25 -22 -23 -83 2 -111 20 -21
28 -22 209 -22 183 0 188 1 209 23 42 45 17 125 -40 128 -65 3 -316 4 -338 1z"/>
<path d="M1872 1330 c-31 -29 -30 -92 2 -117 22 -18 46 -19 339 -18 303 0 317
1 336 20 32 33 31 85 -1 115 -21 19 -34 20 -338 20 -304 0 -317 -1 -338 -20z"/>
</g>
</svg>
